HIERARCHY
ROOT pelvis
{
  OFFSET 0 100 0
  CHANNELS 6 Xposition Yposition Zposition Zrotation Xrotation Yrotation
  JOINT pelvis_right_femur
  {
    OFFSET -10.78128 -3.44521 -0.5502486
    CHANNELS 3 Zrotation Xrotation Yrotation
    JOINT right_femur_tibia
    {
      OFFSET -0.8047443 -44.0398 -0.1307829
      CHANNELS 3 Zrotation Xrotation Yrotation
      JOINT right_tibia_foot
      {
        OFFSET 3.006224 -47.83518 -5
        CHANNELS 3 Zrotation Xrotation Yrotation
        End Site
        {
          OFFSET 0 -5 15
        }
      }
    }
  }
  JOINT pelvis_left_femur
  {
    OFFSET 10.78128 -3.44521 -0.5502486
    CHANNELS 3 Zrotation Xrotation Yrotation
    JOINT left_femur_tibia
    {
      OFFSET 0.8047443 -44.0398 -0.1307829
      CHANNELS 3 Zrotation Xrotation Yrotation
      JOINT left_tibia_foot
      {
        OFFSET -4.370144 -48.10324 -4.275266
        CHANNELS 3 Zrotation Xrotation Yrotation
        End Site
        {
          OFFSET 0 -5 15
        }
      }
    }
  }
  JOINT pelvis_spine1
  {
    OFFSET 0 6.468898 -3.129235
    CHANNELS 3 Zrotation Xrotation Yrotation
    JOINT spine1
    {
      OFFSET 0 23.15396 4.99043
      CHANNELS 3 Zrotation Xrotation Yrotation
      JOINT spine2
      {
        OFFSET 0 20.79997 -5.064912
        CHANNELS 3 Zrotation Xrotation Yrotation
        JOINT neck
        {
          OFFSET 0 14.38658 9.616178
          CHANNELS 3 Zrotation Xrotation Yrotation
          End Site
          {
            OFFSET 0 20 0
          }
        }
      }
      JOINT right_manubrium
      {
        OFFSET -5.722621 16.35077 3.967754
        CHANNELS 3 Zrotation Xrotation Yrotation
        JOINT right_clavicle
        {
          OFFSET -13.16364 1.694482 -4.693211
          CHANNELS 3 Zrotation Xrotation Yrotation
          JOINT right_humerus
          {
            OFFSET -28.5034 -0.3100689 -2.792744
            CHANNELS 3 Zrotation Xrotation Yrotation
            JOINT right_radius
            {
              OFFSET -25.15693 0.02248979 -1.271978
              CHANNELS 3 Zrotation Xrotation Yrotation
              End Site
              {
                OFFSET -15 0 0
              }
            }
          }
        }
      }
      JOINT left_manubrium
      {
        OFFSET 5.722621 16.35077 3.967754
        CHANNELS 3 Zrotation Xrotation Yrotation
        JOINT left_clavicle
        {
          OFFSET 13.16364 1.694482 -4.693211
          CHANNELS 3 Zrotation Xrotation Yrotation
          JOINT left_humerus
          {
            OFFSET 29.39168 -1.063119 -2.237045
            CHANNELS 3 Zrotation Xrotation Yrotation
            JOINT left_radius
            {
              OFFSET 24.59957 -0.9528479 0.9047498
              CHANNELS 3 Zrotation Xrotation Yrotation
              End Site
              {
                OFFSET 15 -0 -0
              }
            }
          }
        }
      }
    }
  }
}
MOTION
Frames: 19
Frame Time: 0.0416666666667
0 103.5113 0 1.304406 -0.7430839 -0.183911 3.424182 -16.57384 10.44188 -0 39.02484 -0 -4.982048 -17.12406 -3.023553 -7.547069 9.746095 -22.78649 -0 5.256631 -0 15.11332 -12.77862 30.26737 -4.523265 -4.163573 5.119705 2.903639 10.82108 -7.898786 1.166232 21.57273 6.808309 3.036842 -24.54373 9.54732 7.070715 -20.19118 12.10899 85.30152 38.67543 -18.2122 -0 0 16.15374 -6.971151 8.369346 4.155368 5.901943 -19.80076 -1.507633 -91.30564 20.23722 19.58168 0 0 -15.00688 15.74989 13.54275 -4.841049
0.3645655 103.6153 1.592724 1.096155 -0.4661275 -0.3549124 3.720028 -17.79301 10.12068 -0 38.20436 -0 -5.146346 -16.17282 -2.730151 -7.426383 9.625676 -22.45111 -0 5.322399 -0 14.93255 -13.14608 29.75438 -4.314333 -3.943178 5.075278 2.916586 10.86953 -7.891766 1.173406 21.45739 6.858784 3.101621 -24.80481 9.581208 6.994912 -20.23313 12.14722 85.33688 38.48396 -18.22212 -0 0 16.08848 -7.151745 8.418893 4.291291 6.002336 -19.96987 -1.594184 -91.291 19.99349 19.66872 0 0 -15.27687 16.03979 13.47959 -5.021661
0.7122173 103.6306 3.41068 0.6026161 0.210074 -0.4738295 4.699003 -20.73614 9.922187 -0 35.43932 -0 -5.175277 -15.08637 -2.481554 -7.084975 10.02383 -21.94609 -0 6.100219 -0 13.81305 -14.58681 28.6627 -3.835247 -3.400827 4.977126 3.010956 10.52771 -7.802249 1.409172 21.30889 6.723913 3.032511 -25.28193 9.768694 6.663729 -20.05218 11.97704 85.34947 37.60631 -18.28739 -0 0 16.01481 -6.660752 8.185298 4.117739 6.158707 -19.91994 -1.569034 -91.63161 20.74445 19.94864 0 0 -15.87108 15.41413 13.71358 -4.022707
1.05473 103.5202 5.554326 0.2053627 0.8976881 -0.4862037 5.339834 -23.72091 9.07755 -0 32.24805 -0 -5.495523 -12.98255 -1.953706 -6.802632 10.24417 -21.00249 -0 6.643047 -0 12.88483 -15.87081 27.17991 -3.421719 -2.900494 4.838252 3.052154 10.4071 -7.776298 1.496321 21.12325 6.728826 3.107727 -25.70427 9.806176 6.331935 -19.89059 11.90479 85.60705 36.94643 -18.56196 -0 0 15.54146 -6.949657 8.216191 4.326589 6.40971 -20.30131 -1.70952 -91.42063 20.73078 19.73799 0 0 -16.99405 15.45234 13.69576 -3.793981
1.387672 103.2271 8.14547 -0.1136994 1.566887 -0.3612836 5.682685 -26.87272 7.632541 -0 28.17938 -0 -6.012281 -10.22412 -1.298103 -6.53547 10.62347 -19.65749 -0 7.054 -0 11.77347 -17.28762 25.23373 -3.051507 -2.412996 4.624243 3.049323 10.32581 -7.787301 1.510813 20.96947 6.780687 3.236047 -25.97399 9.716287 5.885908 -19.62704 11.82432 86.12839 36.2086 -19.08897 -0 0 14.63733 -7.773022 8.376484 4.783724 6.738554 -20.98857 -1.969743 -90.73703 20.48663 18.96627 0 0 -18.75834 15.59048 13.60983 -3.722051
1.700648 102.6776 11.3197 -0.3003268 2.124204 -0.0839165 5.596281 -29.94545 5.526487 -0 23.09486 -0 -6.675656 -7.052209 -0.5841132 -6.313651 11.31939 -17.90304 -0 7.35865 -0 10.4722 -18.76763 22.875 -2.763582 -2.010195 4.340298 2.992161 10.26029 -7.834936 1.465331 20.88995 6.834336 3.370513 -25.96998 9.475652 5.267443 -19.21912 11.70456 86.96562 35.27293 -19.91178 -0 0 13.2354 -9.130853 8.632369 5.45695 7.141263 -21.985 -2.342862 -89.493 20.00057 17.45104 0 0 -21.26059 15.79037 13.45682 -3.831217
1.978097 101.8011 15.21494 -0.3129622 2.458363 0.3443133 4.971642 -32.59113 2.726066 -0 17.06591 -0 -7.443756 -3.761595 0.07565813 -6.169921 12.51745 -15.78975 -0 7.636891 -0 8.854232 -20.2335 20.12204 -2.580029 -1.760985 3.968998 2.867411 10.15947 -7.920454 1.367489 20.9468 6.853373 3.468807 -25.56798 9.061188 4.427635 -18.61281 11.51091 88.15956 34.00865 -21.0678 -0 0 11.28402 -10.98347 8.921611 6.305952 7.578316 -23.24892 -2.827948 -87.69929 19.42689 15.10681 0 0 -24.52391 15.80476 13.3235 -3.893785
2.205014 100.5716 19.93984 -0.1438999 2.461388 0.8973974 3.869335 -34.32589 -0.5551287 -0 10.6012 -0 -8.230116 -0.8108188 0.5201636 -6.135352 14.29692 -13.47256 -0 8.148373 -0 6.859202 -21.44733 17.1025 -2.487704 -1.740331 3.511927 2.67132 9.988902 -8.044223 1.230376 21.18306 6.802616 3.486349 -24.70352 8.48542 3.364903 -17.79737 11.23026 89.67396 32.33659 -22.50981 -0 0 8.867802 -13.15577 9.165619 7.22421 7.965216 -24.65173 -3.407459 -85.50981 18.93317 12.05249 0 0 -28.31635 15.39489 13.30135 -3.666683
2.373607 99.07576 25.51577 0.116229 2.089066 1.517301 2.722997 -34.69118 -3.619775 -0 4.894419 -0 -8.904378 1.184034 0.5464572 -6.179791 16.46591 -11.27408 -0 9.493366 -0 4.541036 -21.99778 14.11616 -2.391625 -1.972414 3.007652 2.42709 9.738526 -8.196186 1.085952 21.58396 6.656843 3.382779 -23.48209 7.840384 2.178661 -16.84692 10.88575 91.32184 30.32592 -24.03439 -0 0 6.342358 -15.20709 9.28029 7.991287 8.154896 -25.90283 -4.025503 -83.33736 18.7868 8.836194 0 0 -31.92748 14.35246 13.46609 -2.861606
2.485063 97.57041 31.81006 0.2458114 1.42571 2.106663 2.283465 -33.54488 -5.382206 -0 1.689897 -0 -9.374115 1.690721 0.02277737 -6.147062 18.37974 -9.643664 -0 12.6668 -0 2.159833 -21.39294 11.63723 -2.105063 -2.361798 2.556999 2.194434 9.461598 -8.344498 0.9850197 22.03718 6.419114 3.143198 -22.26663 7.302459 1.101716 -15.95747 10.55367 92.75845 28.3048 -25.28004 -0 0 4.359654 -16.46531 9.223658 8.309918 7.973787 -26.58565 -4.58161 -81.84505 19.28992 6.516297 0 0 -34.15473 12.67891 13.80037 -1.311183
2.541014 96.44376 38.51748 0.007345662 0.6506414 2.539116 3.071736 -31.18355 -5.078424 -0 2.338816 -0 -9.714037 0.6905289 -0.9577687 -5.817261 19.05004 -8.919469 -0 18.70595 -0 0.126661 -19.36966 10.12724 -1.466458 -2.67681 2.306938 2.044283 9.285819 -8.430802 0.9743902 22.37777 6.127939 2.810973 -21.54121 7.036279 0.4263589 -15.37544 10.34423 93.62723 26.81125 -25.88026 -0 0 3.55889 -16.38822 9.027523 7.98641 7.334338 -26.3907 -4.962184 -81.70458 20.52184 6.236467 0 0 -33.84722 10.72446 14.16607 0.8051289
2.53784 96.04135 45.25452 -0.5855696 -0.1412403 2.709607 4.823577 -28.01668 -3.026568 -0 6.444877 -0 -10.1528 -1.125967 -2.082698 -5.162941 17.71212 -8.983439 -0 27.88569 -0 -1.210598 -16.21524 9.754786 -0.5599967 -2.674966 2.371005 1.996047 9.353562 -8.3864 1.064803 22.53911 5.825808 2.499641 -21.49759 7.03734 0.3040764 -15.20955 10.33776 93.80397 26.26035 -25.69497 -0 0 4.012988 -15.09379 8.77646 7.139661 6.355476 -25.43156 -5.116991 -83.11639 22.01256 8.272895 0 0 -30.85643 9.098462 14.40455 2.866619
2.47421 96.48115 51.72019 -1.181732 -1.060414 2.58512 6.64927 -24.18178 -0.4626416 -0 11.73532 -0 -10.86086 -2.854197 -3.042725 -4.434478 14.35895 -9.27394 -0 39.09795 -0 -1.741839 -12.68956 10.33762 0.24831 -2.284621 2.753069 1.985013 9.712037 -8.162856 1.227222 22.64009 5.514243 2.325573 -21.78801 7.108375 0.6018366 -15.34208 10.52146 93.46766 26.60594 -24.85715 -0 0 5.114492 -13.40815 8.56639 6.173163 5.329428 -24.22709 -5.109157 -85.46249 22.96032 11.55191 0 0 -26.30667 8.286525 14.46904 4.135738
2.351899 97.6167 57.77337 -1.408944 -2.259636 2.20407 7.764026 -19.59992 1.441193 -0 15.69329 -0 -11.80814 -4.132709 -3.692936 -3.842247 9.550008 -9.266389 -0 50.07727 -0 -1.586771 -9.540679 11.54445 0.6105749 -1.630417 3.364533 1.915707 10.26514 -7.751177 1.414345 22.85226 5.166343 2.313529 -21.85926 7.034257 1.007359 -15.61062 10.79968 92.86064 27.42354 -23.54491 -0 0 6.218374 -12.23542 8.467056 5.514646 4.530874 -23.26851 -5.051749 -87.72547 22.94305 14.56253 0 0 -21.66055 8.329392 14.4112 4.289962
2.17381 99.12617 63.39386 -1.199732 -3.682681 1.646266 7.96923 -14.25908 2.253166 -0 17.05861 -0 -12.83699 -5.286005 -4.012813 -3.323301 3.840994 -8.794331 -0 58.21649 -0 -0.9828275 -7.146984 13.06438 0.4705255 -0.9043249 4.087469 1.739511 10.83324 -7.183413 1.572412 23.21622 4.785588 2.400765 -21.44709 6.740471 1.260118 -16.01611 11.06895 92.03569 28.28594 -21.77372 -0 0 7.22451 -11.99648 8.489805 5.428351 4.077217 -22.69627 -5.00051 -89.34186 22.13521 16.62753 0 0 -17.73822 8.89204 14.29283 3.580799
1.962015 100.6204 68.63178 -0.759035 -5.043147 0.9872033 7.517945 -8.348893 2.152306 -0 15.90329 -0 -13.79197 -6.864101 -4.019674 -2.659034 -2.387813 -7.962488 -0 61.38002 -0 -0.1680024 -5.54331 14.64872 0.01906883 -0.2669224 4.806525 1.475611 11.24491 -6.5244 1.64672 23.62466 4.426012 2.508552 -20.66835 6.289406 1.264029 -16.6955 11.26717 90.88113 28.98274 -19.44844 -0 0 8.467742 -12.62142 8.591268 6.003246 3.94455 -22.36843 -4.929701 -90.38861 20.94259 18.02999 0 0 -14.62729 9.557586 14.16011 2.537453
1.772777 101.7337 73.59096 -0.3412185 -6.003873 0.2663568 6.756275 -2.22082 1.515798 -0 13.01639 -0 -14.57079 -9.179841 -3.743868 -1.690925 -8.742924 -6.965247 -0 58.51064 -0 0.6833767 -4.600688 16.11557 -0.5041836 0.1694056 5.420578 1.182159 11.39213 -5.853164 1.600465 23.92722 4.154969 2.582847 -19.80539 5.795262 1.057005 -17.75605 11.36711 89.30849 29.48284 -16.54619 -0 0 10.27945 -13.80068 8.705665 7.189525 4.044308 -22.07139 -4.779439 -91.17681 19.70945 19.34789 0 0 -12.08139 10.03407 14.05021 1.62359
1.680606 102.2029 78.41293 -0.09136843 -6.363722 -0.4964322 5.918579 3.712172 0.6824015 -0 9.435093 -0 -15.11598 -12.11378 -3.237805 -0.4460274 -14.68565 -6.005395 -0 50.00389 -0 1.463898 -4.150572 17.3556 -0.9474356 0.3367372 5.859456 0.917937 11.24902 -5.237537 1.439103 24.02767 4.005789 2.598282 -19.09685 5.358436 0.7399022 -19.15715 11.35857 87.38506 29.8153 -13.23149 -0 0 12.69546 -15.17929 8.776053 8.818106 4.272036 -21.65259 -4.507382 -91.93077 18.6485 20.94008 0 0 -9.842327 10.19978 13.98703 1.088578
1.743805 101.9212 83.24471 -0.01207135 -6.150189 -1.268527 5.102871 9.071517 -0.1069153 -0 6.197343 -0 -15.40883 -15.1456 -2.574543 0.8523438 -19.61079 -5.286507 -0 37.71473 -0 2.107156 -4.031734 18.33007 -1.275611 0.2200016 6.099943 0.7144426 10.87205 -4.712706 1.217824 23.92515 3.959214 2.556052 -18.64748 5.038176 0.4184983 -20.70296 11.24666 85.34842 29.99053 -9.849988 -0 0 15.41655 -16.46441 8.772042 10.63171 4.527701 -21.06295 -4.120216 -92.71849 17.85855 22.81658 0 0 -7.766135 10.06407 13.98196 0.9763144
